<svg width="50.000000" height="50.000000" viewBox="0 0 50 50" fill="none" xmlns="http://www.w3.org/2000/svg" xmlns:xlink="http://www.w3.org/1999/xlink">
	<desc>
			Created with Pixso.
	</desc>
	<defs>
		<clipPath id="clip38_1453">
			<rect id="Profile" rx="-0.500000" width="49.000000" height="49.000000" transform="translate(0.500000 0.500000)" fill="white" fill-opacity="0"/>
		</clipPath>
	</defs>
	<g clip-path="url(#clip38_1453)">
		<path id="Icon" d="M45.83 25C45.83 36.5 36.5 45.83 25 45.83C13.49 45.83 4.16 36.5 4.16 25C4.16 13.49 13.49 4.16 25 4.16C36.5 4.16 45.83 13.49 45.83 25ZM37.5 32.44C37.5 35.89 31.9 39.58 25 39.58C18.09 39.58 12.5 35.89 12.5 32.44C12.5 28.98 18.09 27.08 25 27.08C31.9 27.08 37.5 28.98 37.5 32.44ZM25 22.91C28.45 22.91 31.25 20.11 31.25 16.66C31.25 13.21 28.45 10.41 25 10.41C21.54 10.41 18.75 13.21 18.75 16.66C18.75 20.11 21.54 22.91 25 22.91Z" fill="#D9D9D9" fill-opacity="1.000000" fill-rule="evenodd"/>
	</g>
</svg>
