<svg width="24.014679" height="23.999512" viewBox="0 0 24.0147 23.9995" fill="none" xmlns="http://www.w3.org/2000/svg" xmlns:xlink="http://www.w3.org/1999/xlink">
	<desc>
			Created with Pixso.
	</desc>
	<defs/>
	<path id="Vector" d="M12.62 12.05L12.22 12.21L12.06 12.61L8.99 20.19L2.66 2.66L20.19 8.99L12.62 12.05Z" fill="#FFFFFF" fill-opacity="1.000000" fill-rule="nonzero"/>
	<path id="Vector" d="M23.33 8.05L1.33 0.05C1.16 -0.01 0.96 -0.02 0.78 0.02C0.59 0.06 0.42 0.15 0.29 0.29C0.15 0.42 0.06 0.59 0.02 0.78C-0.02 0.96 -0.01 1.16 0.05 1.33L8.05 23.33C8.12 23.53 8.25 23.69 8.42 23.81C8.59 23.93 8.79 23.99 8.99 23.99C9.19 23.99 9.39 23.93 9.56 23.82C9.72 23.71 9.85 23.55 9.92 23.36L13.76 13.76L23.36 9.92C23.55 9.85 23.72 9.72 23.83 9.56C23.95 9.39 24.01 9.19 24.01 8.99C24.01 8.79 23.95 8.59 23.83 8.42C23.72 8.25 23.55 8.13 23.36 8.05L23.33 8.05ZM12.62 12.05L12.22 12.21L12.06 12.61L8.99 20.19L2.66 2.66L20.19 8.99L12.62 12.05Z" fill="#000000" fill-opacity="1.000000" fill-rule="nonzero"/>
</svg>
