<svg width="42" height="42" viewBox="0 0 42 42" fill="none" xmlns="http://www.w3.org/2000/svg">
<path fill-rule="evenodd" clip-rule="evenodd" d="M41.8334 21.0001C41.8334 32.506 32.506 41.8334 21.0001 41.8334C9.49415 41.8334 0.166748 32.506 0.166748 21.0001C0.166748 9.49415 9.49415 0.166748 21.0001 0.166748C32.506 0.166748 41.8334 9.49415 41.8334 21.0001ZM33.5001 28.4406C33.5001 31.8923 27.9036 35.5834 21.0001 35.5834C14.0965 35.5834 8.50008 31.8923 8.50008 28.4406C8.50008 24.9888 14.0965 23.0834 21.0001 23.0834C27.9036 23.0834 33.5001 24.9888 33.5001 28.4406ZM21.0001 18.9167C24.4519 18.9167 27.2501 16.1185 27.2501 12.6667C27.2501 9.21497 24.4519 6.41675 21.0001 6.41675C17.5483 6.41675 14.7501 9.21497 14.7501 12.6667C14.7501 16.1185 17.5483 18.9167 21.0001 18.9167Z" fill="#D9D9D9"/>
</svg>
