<?xml version="1.0" encoding="utf-8"?>
<!-- Generator: Adobe Illustrator 27.5.0, SVG Export Plug-In . SVG Version: 6.00 Build 0)  -->
<svg version="1.1" xmlns="http://www.w3.org/2000/svg" xmlns:xlink="http://www.w3.org/1999/xlink" x="0px" y="0px"
	 viewBox="0 0 500 500" style="enable-background:new 0 0 500 500;" xml:space="preserve">
<g id="Background_Complete">
	<g>
		<rect y="382.398" style="fill:#EBEBEB;" width="500" height="0.25"/>
		<rect x="416.779" y="398.494" style="fill:#EBEBEB;" width="33.122" height="0.25"/>
		<rect x="322.527" y="401.208" style="fill:#EBEBEB;" width="8.693" height="0.25"/>
		<rect x="396.586" y="389.208" style="fill:#EBEBEB;" width="19.192" height="0.25"/>
		<rect x="52.459" y="390.888" style="fill:#EBEBEB;" width="43.193" height="0.25"/>
		<rect x="104.556" y="390.888" style="fill:#EBEBEB;" width="6.333" height="0.25"/>
		<rect x="131.471" y="395.111" style="fill:#EBEBEB;" width="93.676" height="0.25"/>
		<path style="fill:#EBEBEB;" d="M237.014,337.8H43.915c-3.147,0-5.708-2.561-5.708-5.708V60.66c0-3.147,2.561-5.708,5.708-5.708
			h193.099c3.146,0,5.707,2.561,5.707,5.708v271.432C242.721,335.239,240.16,337.8,237.014,337.8z M43.915,55.203
			c-3.01,0-5.458,2.448-5.458,5.458v271.432c0,3.01,2.448,5.458,5.458,5.458h193.099c3.009,0,5.457-2.448,5.457-5.458V60.66
			c0-3.009-2.448-5.458-5.457-5.458H43.915z"/>
		<path style="fill:#EBEBEB;" d="M453.31,337.8H260.212c-3.147,0-5.707-2.561-5.707-5.708V60.66c0-3.147,2.561-5.708,5.707-5.708
			H453.31c3.148,0,5.708,2.561,5.708,5.708v271.432C459.019,335.239,456.458,337.8,453.31,337.8z M260.212,55.203
			c-3.009,0-5.457,2.448-5.457,5.458v271.432c0,3.01,2.448,5.458,5.457,5.458H453.31c3.01,0,5.458-2.448,5.458-5.458V60.66
			c0-3.009-2.448-5.458-5.458-5.458H260.212z"/>
	</g>
	<g>
		<g>
			<g>
				<rect x="98.531" y="164.35" style="fill:#EBEBEB;" width="77.072" height="156.965"/>
				
					<rect x="61.84" y="207.204" transform="matrix(-1.836970e-16 1 -1 -1.836970e-16 379.8991 105.7655)" style="fill:#E0E0E0;" width="150.453" height="71.257"/>
				<rect x="136.248" y="166.769" style="fill:#EBEBEB;" width="1.638" height="152.917"/>
				<rect x="96.752" y="162.09" style="fill:#EBEBEB;" width="80.629" height="8.171"/>
				<g>
					<rect x="96.752" y="171.166" style="fill:#EBEBEB;" width="80.629" height="0.968"/>
					<rect x="96.752" y="173.364" style="fill:#EBEBEB;" width="80.629" height="0.968"/>
					<rect x="96.752" y="175.562" style="fill:#EBEBEB;" width="80.629" height="0.969"/>
					<rect x="96.752" y="177.76" style="fill:#EBEBEB;" width="80.629" height="0.968"/>
					<rect x="96.752" y="179.958" style="fill:#EBEBEB;" width="80.629" height="0.968"/>
					<rect x="96.752" y="182.157" style="fill:#EBEBEB;" width="80.629" height="0.969"/>
					<rect x="96.752" y="184.355" style="fill:#EBEBEB;" width="80.629" height="0.968"/>
					<rect x="96.752" y="186.553" style="fill:#EBEBEB;" width="80.629" height="0.968"/>
					<rect x="96.752" y="188.751" style="fill:#EBEBEB;" width="80.629" height="0.968"/>
					<rect x="96.752" y="190.949" style="fill:#EBEBEB;" width="80.629" height="0.968"/>
					<rect x="96.752" y="193.147" style="fill:#EBEBEB;" width="80.629" height="0.968"/>
					<rect x="96.752" y="195.345" style="fill:#EBEBEB;" width="80.629" height="0.968"/>
					<rect x="96.752" y="197.543" style="fill:#EBEBEB;" width="80.629" height="0.969"/>
					<rect x="96.752" y="199.742" style="fill:#EBEBEB;" width="80.629" height="0.969"/>
					<rect x="96.752" y="201.94" style="fill:#EBEBEB;" width="80.629" height="0.969"/>
					<rect x="96.752" y="204.138" style="fill:#EBEBEB;" width="80.629" height="0.969"/>
					<rect x="96.752" y="206.336" style="fill:#EBEBEB;" width="80.629" height="0.968"/>
					<rect x="96.752" y="208.534" style="fill:#EBEBEB;" width="80.629" height="0.968"/>
				</g>
			</g>
			<g>
				<rect x="189.778" y="164.35" style="fill:#EBEBEB;" width="77.072" height="156.965"/>
				
					<rect x="153.088" y="207.204" transform="matrix(-1.836970e-16 1 -1 -1.836970e-16 471.1466 14.518)" style="fill:#E0E0E0;" width="150.453" height="71.257"/>
				<rect x="227.495" y="166.769" style="fill:#EBEBEB;" width="1.638" height="152.917"/>
				<rect x="188" y="162.09" style="fill:#EBEBEB;" width="80.629" height="8.171"/>
				<g>
					<rect x="188" y="171.166" style="fill:#EBEBEB;" width="80.629" height="0.968"/>
					<rect x="188" y="173.364" style="fill:#EBEBEB;" width="80.629" height="0.968"/>
					<rect x="188" y="175.562" style="fill:#EBEBEB;" width="80.629" height="0.969"/>
					<rect x="188" y="177.76" style="fill:#EBEBEB;" width="80.629" height="0.968"/>
					<rect x="188" y="179.958" style="fill:#EBEBEB;" width="80.629" height="0.968"/>
					<rect x="188" y="182.157" style="fill:#EBEBEB;" width="80.629" height="0.969"/>
					<rect x="188" y="184.355" style="fill:#EBEBEB;" width="80.629" height="0.968"/>
					<rect x="188" y="186.553" style="fill:#EBEBEB;" width="80.629" height="0.968"/>
					<rect x="188" y="188.751" style="fill:#EBEBEB;" width="80.629" height="0.968"/>
					<rect x="188" y="190.949" style="fill:#EBEBEB;" width="80.629" height="0.968"/>
					<rect x="188" y="193.147" style="fill:#EBEBEB;" width="80.629" height="0.968"/>
					<rect x="188" y="195.345" style="fill:#EBEBEB;" width="80.629" height="0.968"/>
					<rect x="188" y="197.543" style="fill:#EBEBEB;" width="80.629" height="0.969"/>
					<rect x="188" y="199.742" style="fill:#EBEBEB;" width="80.629" height="0.969"/>
					<rect x="188" y="201.94" style="fill:#EBEBEB;" width="80.629" height="0.969"/>
					<rect x="188" y="204.138" style="fill:#EBEBEB;" width="80.629" height="0.969"/>
					<rect x="188" y="206.336" style="fill:#EBEBEB;" width="80.629" height="0.968"/>
					<rect x="188" y="208.534" style="fill:#EBEBEB;" width="80.629" height="0.968"/>
				</g>
			</g>
		</g>
		<g>
			<g>
				<path style="fill:#E0E0E0;" d="M274.976,358.535h-77.746v-7.904c0-2.321,1.882-4.202,4.202-4.202h69.342
					c2.321,0,4.202,1.882,4.202,4.202V358.535z"/>
				<path style="opacity:0.6;fill:#F0F0F0;" d="M225.669,358.535h-28.439v-7.904c0-2.321,1.882-4.202,4.202-4.202h20.035
					c2.321,0,4.202,1.882,4.202,4.202V358.535z"/>
				<polygon style="fill:#E0E0E0;" points="250.58,414.749 248.246,414.749 246.69,357.871 250.58,357.871 				"/>
				<polygon style="fill:#E0E0E0;" points="199.417,414.749 197.083,414.749 197.083,357.871 200.973,357.871 				"/>
				<polygon style="fill:#E0E0E0;" points="223.074,414.749 220.74,414.749 220.74,357.871 224.629,357.871 				"/>
				<polygon style="fill:#E0E0E0;" points="274.237,414.749 271.903,414.749 270.347,357.871 274.237,357.871 				"/>
				<path style="fill:#EBEBEB;" d="M196.291,364.051h80.552c0.586,0,1.062-0.475,1.062-1.062v-4.055
					c0-0.587-0.475-1.062-1.062-1.062h-80.552c-0.587,0-1.062,0.475-1.062,1.062v4.055
					C195.229,363.575,195.705,364.051,196.291,364.051z"/>
			</g>
			<g>
				<path style="fill:#E0E0E0;" d="M188.947,358.535h-77.747v-7.904c0-2.321,1.882-4.202,4.202-4.202h69.342
					c2.321,0,4.202,1.882,4.202,4.202V358.535z"/>
				<path style="opacity:0.6;fill:#F0F0F0;" d="M139.64,358.535h-28.439v-7.904c0-2.321,1.882-4.202,4.202-4.202h20.035
					c2.321,0,4.202,1.882,4.202,4.202V358.535z"/>
				<polygon style="fill:#E0E0E0;" points="164.551,414.749 162.218,414.749 160.662,357.871 164.551,357.871 				"/>
				<polygon style="fill:#E0E0E0;" points="113.388,414.749 111.055,414.749 111.055,357.871 114.944,357.871 				"/>
				<polygon style="fill:#E0E0E0;" points="137.045,414.749 134.711,414.749 134.711,357.871 138.601,357.871 				"/>
				<polygon style="fill:#E0E0E0;" points="188.208,414.749 185.875,414.749 184.319,357.871 188.208,357.871 				"/>
				<path style="fill:#EBEBEB;" d="M110.263,364.051h80.552c0.586,0,1.062-0.475,1.062-1.062v-4.055
					c0-0.587-0.476-1.062-1.062-1.062h-80.552c-0.587,0-1.062,0.475-1.062,1.062v4.055
					C109.201,363.575,109.676,364.051,110.263,364.051z"/>
			</g>
		</g>
	</g>
</g>
<g id="Background_Simple" style="display:none;">
	<g style="display:inline;">
		<path style="fill:#407BFF;" d="M94.933,114.417c27.919-59.449,127.059-51.062,165.317-9.255
			c38.258,41.806,50.696,68.599,85.208,52.983c34.512-15.616,78.518-11.44,81.043,38.164s-37.913,108.263-102.09,125.615
			c-64.177,17.352-64.161,78.759-149.1,66.368c-46.31-6.756-47.365-56.86-40.825-98.301S62.555,183.361,94.933,114.417z"/>
		<path style="opacity:0.9;fill:#FFFFFF;" d="M94.933,114.417c27.919-59.449,127.059-51.062,165.317-9.255
			c38.258,41.806,50.696,68.599,85.208,52.983c34.512-15.616,78.518-11.44,81.043,38.164s-37.913,108.263-102.09,125.615
			c-64.177,17.352-64.161,78.759-149.1,66.368c-46.31-6.756-47.365-56.86-40.825-98.301S62.555,183.361,94.933,114.417z"/>
	</g>
</g>
<g id="Shadow_1_">
	<ellipse id="_x3C_Path_x3E__359_" style="fill:#F5F5F5;" cx="250" cy="416.238" rx="193.889" ry="11.323"/>
</g>
<g id="Clock">
	<g>
		
			<ellipse transform="matrix(0.2298 -0.9732 0.9732 0.2298 162.3392 437.456)" style="fill:#407BFF;" cx="357.544" cy="116.166" rx="17.817" ry="17.817"/>
		
			<ellipse transform="matrix(0.1602 -0.9871 0.9871 0.1602 185.6064 450.4857)" style="opacity:0.4;fill:#FFFFFF;" cx="357.544" cy="116.166" rx="15.149" ry="15.149"/>
		<g>
			<path style="fill:#407BFF;" d="M356.83,117.364c-0.17,0-0.34-0.043-0.493-0.13l-7.018-3.972c-0.48-0.272-0.649-0.882-0.377-1.363
				c0.271-0.48,0.882-0.651,1.363-0.377l5.525,3.127v-8.876c0-0.552,0.448-1,1-1c0.552,0,1,0.448,1,1v10.59
				c0,0.356-0.189,0.685-0.496,0.864C357.178,117.318,357.004,117.364,356.83,117.364z"/>
		</g>
		
			<ellipse transform="matrix(0.2298 -0.9732 0.9732 0.2298 162.3392 437.456)" style="opacity:0.4;fill:#FFFFFF;" cx="357.544" cy="116.166" rx="17.817" ry="17.817"/>
	</g>
</g>
<g id="Plant">
	<g>
		<path style="fill:#263238;" d="M95.887,386.391c0,0,1.539-11.275,8.748-12.508c7.21-1.234,5.036-6.685,6.914-8.795
			c1.878-2.11,6.784,4.115,2.582,10.147c-4.203,6.031-0.767,4.136-2.582,9.744C109.735,390.585,95.228,395.736,95.887,386.391z"/>
		<path style="opacity:0.2;fill:#FFFFFF;enable-background:new    ;" d="M95.887,386.391c0,0,1.539-11.275,8.748-12.508
			c7.21-1.234,5.036-6.685,6.914-8.795c1.878-2.11,6.784,4.115,2.582,10.147c-4.203,6.031-0.767,4.136-2.582,9.744
			C109.735,390.585,95.228,395.736,95.887,386.391z"/>
		<path style="fill:none;stroke:#263238;stroke-linecap:round;stroke-linejoin:round;stroke-miterlimit:10;" d="M98.284,393.593
			c0,0,4.591-11.89,0.202-30.342c-4.389-18.452-15.832-24.833-8.039-46.149c7.793-21.316,17.406-36.84,10.841-50.995"/>
		<path style="fill:#263238;" d="M100.35,391.457c0,0,4.66-7.023-2.066-10.634c-6.726-3.61-8.074-0.704-12.236-3.3
			c-4.162-2.596-7.315-8.888-8.025-4.863c-0.709,4.025,4.097,6.322,2.397,8.163C78.72,382.665,91.733,394.623,100.35,391.457z"/>
		<g>
			<path style="fill:#263238;" d="M103.725,271.795c0,0,3.424-14.12-6.892-13.582C86.516,258.75,98.893,270.707,103.725,271.795z"/>
			<path style="fill:#263238;" d="M95.632,283.088c0,0-4.07-12.262-11.165-9.039C77.372,277.273,88.368,283.902,95.632,283.088z"/>
			<path style="fill:#263238;" d="M108.114,283.178c0,0-1.901-9.894,5.836-10.713C121.686,271.646,118.938,280.688,108.114,283.178z
				"/>
			<path style="fill:#263238;" d="M104.588,303.954c0,0,9.662-10.11,13.957-3.507C122.84,307.05,111.365,309.417,104.588,303.954z"
				/>
			<path style="fill:#263238;" d="M86.047,303.784c0,0-3.191-15.249-11.209-9.743C66.821,299.547,78.849,305.91,86.047,303.784z"/>
			<path style="fill:#263238;" d="M80.42,326.433c0,0,4.956-16.063-6.432-13.385C62.601,315.725,71.979,323.307,80.42,326.433z"/>
			<path style="fill:#263238;" d="M98.555,330.569c0,0,8.818-12.252,16.551-9.21C122.84,324.4,117.672,336.292,98.555,330.569z"/>
			<path style="fill:#263238;" d="M91.756,356.692c0,0-9.772-17.755-16.65-10.956C68.228,352.536,81.053,360.849,91.756,356.692z"/>
			<path style="fill:#263238;" d="M103.725,354.648c0,0-3.337-14.114,4.967-13.623C116.997,341.516,115.541,350.431,103.725,354.648
				z"/>
			<g style="opacity:0.2;enable-background:new    ;">
				<path style="fill:#FFFFFF;" d="M103.725,271.795c0,0,3.424-14.12-6.892-13.582C86.516,258.75,98.893,270.707,103.725,271.795z"
					/>
				<path style="fill:#FFFFFF;" d="M95.632,283.088c0,0-4.07-12.262-11.165-9.039C77.372,277.273,88.368,283.902,95.632,283.088z"/>
				<path style="fill:#FFFFFF;" d="M108.114,283.178c0,0-1.901-9.894,5.836-10.713C121.686,271.646,118.938,280.688,108.114,283.178
					z"/>
				<path style="fill:#FFFFFF;" d="M104.588,303.954c0,0,9.662-10.11,13.957-3.507C122.84,307.05,111.365,309.417,104.588,303.954z"
					/>
				<path style="fill:#FFFFFF;" d="M86.047,303.784c0,0-3.191-15.249-11.209-9.743C66.821,299.547,78.849,305.91,86.047,303.784z"/>
				<path style="fill:#FFFFFF;" d="M80.42,326.433c0,0,4.956-16.063-6.432-13.385C62.601,315.725,71.979,323.307,80.42,326.433z"/>
				<path style="fill:#FFFFFF;" d="M98.555,330.569c0,0,8.818-12.252,16.551-9.21C122.84,324.4,117.672,336.292,98.555,330.569z"/>
				<path style="fill:#FFFFFF;" d="M91.756,356.692c0,0-9.772-17.755-16.65-10.956C68.228,352.536,81.053,360.849,91.756,356.692z"
					/>
				<path style="fill:#FFFFFF;" d="M103.725,354.648c0,0-3.337-14.114,4.967-13.623
					C116.997,341.516,115.541,350.431,103.725,354.648z"/>
			</g>
		</g>
		<path style="fill:none;stroke:#263238;stroke-linecap:round;stroke-linejoin:round;stroke-miterlimit:10;" d="M110.432,279.698
			c0,0-3.9,6.934-9.688,10.812c0,0-4.627-7.411-7.904-9.035"/>
		<path style="fill:none;stroke:#263238;stroke-linecap:round;stroke-linejoin:round;stroke-miterlimit:10;" d="M112.503,302.391
			c0,0-11.289,0.54-19.662,7.992c0,0-5.621-7.992-12.421-11.294"/>
		<path style="fill:none;stroke:#263238;stroke-linecap:round;stroke-linejoin:round;stroke-miterlimit:10;" d="M76.434,319.334
			c0,0,5.853,12.335,12.422,16.79c0,0,12.197-8.441,21.575-9.379"/>
		<path style="fill:none;stroke:#263238;stroke-linecap:round;stroke-linejoin:round;stroke-miterlimit:10;" d="M108.114,345.737
			c0,0-5.331,12.844-9.83,15.918c0,0-4.904-5.862-14.666-7.959"/>
		<path style="fill:#263238;" d="M99.634,389.782c0,0,3.996-6.361,8.51-7.267c4.513-0.906,6.458-6.104,8.123-2.977
			C117.933,382.665,113.34,393.03,99.634,389.782z"/>
		<g>
			<polygon style="fill:#407BFF;" points="120.373,414.749 76.738,414.749 73.817,387.833 123.293,387.833 			"/>
			<polygon style="fill:#407BFF;" points="124.312,392.933 72.799,392.933 72.14,387.23 124.971,387.23 			"/>
			<polygon style="opacity:0.3;fill:#FFFFFF;" points="124.312,392.933 72.799,392.933 72.14,387.23 124.971,387.23 			"/>
		</g>
	</g>
</g>
<g id="Door">
	<g>
		<rect x="295.967" y="154.621" style="fill:#407BFF;" width="120.737" height="260.128"/>
		<rect x="295.967" y="154.621" style="opacity:0.2;fill:#FFFFFF;" width="116.886" height="260.128"/>
		<rect x="311.162" y="169.232" style="fill:#407BFF;" width="25.283" height="98.69"/>
		<rect x="311.162" y="169.232" style="opacity:0.7;fill:#FFFFFF;" width="22.936" height="98.69"/>
		<path style="fill:#407BFF;" d="M319.942,295.573c0,2.424-1.965,4.39-4.39,4.39c-2.424,0-4.39-1.966-4.39-4.39
			c0-2.425,1.965-4.39,4.39-4.39C317.977,291.183,319.942,293.149,319.942,295.573z"/>
		<circle style="fill:#263238;" cx="319.942" cy="295.573" r="4.39"/>
		<circle style="opacity:0.8;fill:#FFFFFF;" cx="319.942" cy="295.573" r="4.39"/>
	</g>
</g>
<g id="Character">
	<g id="_x3C_Group_x3E__2_">
		<path style="fill:#407BFF;" d="M257.013,237.373c-2.469-1.152-5.474-2.832-9.094-5.188l-0.866-7.855l-0.814-7.362
			c5.829,1.377,18.811,11.519,20.907,15.988C268.661,236.178,268.904,242.898,257.013,237.373z"/>
		<path style="fill:#263238;" d="M218.934,414.998h-8.271c-0.279,0.001-0.52,0.195-0.58,0.468l-1.342,6.063
			c-0.115,0.543,0.232,1.076,0.775,1.191c0.073,0.015,0.147,0.023,0.221,0.022c2.676-0.043,4.625-0.208,7.985-0.208
			c2.07,0,8.314,0.217,11.172,0.217c2.858,0,3.23-2.823,2.061-3.083c-5.248-1.143-9.198-2.728-10.878-4.235
			C219.766,415.145,219.357,414.99,218.934,414.998z"/>
		<path style="fill:#263238;" d="M254.01,414.781h-8.271c-0.279,0.001-0.52,0.195-0.58,0.468l-1.342,6.062
			c-0.115,0.543,0.232,1.076,0.775,1.191c0.073,0.015,0.147,0.023,0.221,0.022c2.676-0.043,4.625-0.208,7.985-0.208
			c2.07,0,8.314,0.217,11.172,0.217c2.858,0,3.23-2.823,2.061-3.083c-5.249-1.143-9.198-2.728-10.878-4.235
			C254.842,414.929,254.433,414.773,254.01,414.781z"/>
		<g>
			<path style="fill:#263238;" d="M214.548,261.679h36.136c3.436,18.762,13.06,94.595,5.344,153.751l-12.233,0.375
				c0,0,2.263-89.864-8.538-118.897c-1.242,15.538-2.717,32.07-3.998,40.868c-3.144,21.652-10.086,78.031-10.086,78.031h-12.454
				c0,0,2.759-54.353,3.937-75.632C213.942,317.073,214.498,266.423,214.548,261.679z"/>
			<path style="opacity:0.2;fill:#FFFFFF;enable-background:new    ;" d="M208.719,415.807h12.454c0,0,6.942-56.382,10.086-78.034
				c1.282-8.791,2.754-25.324,4.001-40.861c1.594,4.278,2.919,9.622,4.036,15.633c6.452,34.825,4.499,103.264,4.499,103.264
				l12.229-0.16c7.717-59.162-1.901-135.349-5.339-153.537h-36.133c-0.052,4.33-0.606,55.178-1.897,78.276
				C211.477,361.668,208.719,415.807,208.719,415.807z"/>
		</g>
		<path style="opacity:0.2;enable-background:new    ;" d="M235.26,296.911c1.594,4.278,2.919,9.622,4.036,15.633
			c1.01-13.827-3.031-28.491-3.031-28.491L235.26,296.911z"/>
		<path style="fill:#407BFF;" d="M250.682,262.108h-36.133c0,0-0.017-9.934-1.654-21.574c-0.554-3.915-1.29-8.029-2.278-12.021
			c-0.745-3.031-1.628-6.002-2.685-8.765c0,0,16.04-6.548,38.306-2.78C246.239,216.968,250.335,235.987,250.682,262.108z"/>
		<g>
			<g>
				<polygon points="225.427,266.141 247.98,266.15 247.639,261.715 225.427,261.982 				"/>
				<polygon points="249.097,266.151 251.479,266.152 250.684,261.679 248.755,261.702 				"/>
				<polygon points="224.314,261.995 214.552,262.112 214.552,266.137 224.314,266.141 				"/>
			</g>
			<path style="fill:#FFFFFF;" d="M240.763,261.41c-0.282-0.25-6.52-0.157-6.983,0.396c0,0-0.238,4.245,0.055,4.615
				c0.292,0.369,6.266-0.154,6.828-0.168C241.223,266.239,241.044,261.661,240.763,261.41z M240.066,265.836
				c-0.462,0.011-5.371,0.441-5.611,0.138c-0.24-0.304-0.045-3.793-0.045-3.793c0.38-0.454,5.507-0.531,5.738-0.325
				C240.38,262.061,240.527,265.824,240.066,265.836z"/>
			<path style="fill:#FFFFFF;" d="M239.67,263.093l-1.232,0.03c-0.234,0.006-0.425,0.19-0.44,0.424l-0.001,0.019
				c-0.016,0.267,0.202,0.49,0.469,0.479l1.234-0.05c0.259-0.01,0.456-0.236,0.431-0.494
				C240.108,263.266,239.907,263.087,239.67,263.093z"/>
		</g>
		<path style="opacity:0.2;enable-background:new    ;" d="M212.895,240.534c-0.554-3.915-1.29-8.029-2.278-12.021
			c0.442-0.32,0.927-0.589,1.455-0.788C212.072,227.725,215.554,234.896,212.895,240.534z"/>
		<path style="fill:#B97964;" d="M207.933,219.748c-7.375,3.504-17.425,24.975-15.369,32.285
			c2.056,7.309,20.101,17.817,20.101,17.817l-5.711,5.482c0,0,4.568,3.883,6.624,3.426c2.056-0.457,4.424-5.482,4.268-7.995
			c-0.156-2.513-3.294-4.625-3.294-4.625s-12.819-13.699-13.08-16.866c-0.628-7.632,9.329-20.022,9.329-20.022L207.933,219.748z"/>
		<path style="fill:#407BFF;" d="M207.933,219.748c-4.177,0.821-16.826,17.438-15.641,30.971l10.093-1.448
			c0,0,2.957-10.215,9.211-16.395c0,0,1.411-3.743-0.389-9.807C210.54,220.822,207.933,219.748,207.933,219.748z"/>
		<g>
			<polygon style="fill:#407BFF;" points="191.593,250.205 203.071,248.749 203.071,250.205 191.593,252.946 			"/>
			<polygon style="opacity:0.2;fill:#FFFFFF;enable-background:new    ;" points="191.593,250.205 203.071,248.749 203.071,250.205 
				191.593,252.946 			"/>
		</g>
		<path style="opacity:0.2;enable-background:new    ;" d="M257.013,237.373c-2.469-1.152-5.474-2.832-9.094-5.188l-0.866-7.855
			C249.132,225.473,256.831,230.202,257.013,237.373z"/>
		<path style="fill:#B97964;" d="M260.18,229.656c0,0-13.762-1.654-16.263-1.248c-2.501,0.406-7.92,5.183-8.128,5.355
			c-0.208,0.172,3.804,5.292,4.656,5.114c0.852-0.178,5.258-4.69,5.378-5.114c0.119-0.424,0.357-1.138,0.357-1.138l13.1,4.219
			C259.28,236.843,262.204,232.514,260.18,229.656z"/>
		<g>
			<path style="fill:#407BFF;" d="M244.929,228.408c0,0,1.426,2.157,1.282,4.544l1.39-0.03c0,0,1.244-2.24,0.313-4.41
				L244.929,228.408z"/>
			<path style="opacity:0.2;enable-background:new    ;" d="M244.929,228.408c0,0,1.426,2.157,1.282,4.544l1.39-0.03
				c0,0,1.244-2.24,0.313-4.41L244.929,228.408z"/>
			<path style="fill:#263238;" d="M248.377,228.872c-0.039,0.505-0.895,0.85-1.911,0.772c-1.016-0.078-1.809-0.551-1.77-1.056
				c0.039-0.505,0.895-0.85,1.911-0.772C247.624,227.895,248.416,228.367,248.377,228.872z"/>
			<path style="fill:#407BFF;" d="M247.914,228.512c-0.029,0.371-0.657,0.625-1.404,0.567c-0.747-0.058-1.329-0.405-1.301-0.776
				c0.029-0.371,0.657-0.625,1.404-0.567C247.361,227.794,247.943,228.141,247.914,228.512z"/>
			<path style="opacity:0.7;fill:#FFFFFF;enable-background:new    ;" d="M247.914,228.512c-0.029,0.371-0.657,0.625-1.404,0.567
				c-0.747-0.058-1.329-0.405-1.301-0.776c0.029-0.371,0.657-0.625,1.404-0.567C247.361,227.794,247.943,228.141,247.914,228.512z"
				/>
		</g>
		<g>
			<polygon style="fill:#407BFF;" points="258.946,237.413 260.618,228.845 261.981,229.358 261.512,238.38 			"/>
			<polygon style="opacity:0.2;fill:#FFFFFF;enable-background:new    ;" points="258.946,237.413 260.618,228.845 261.981,229.358 
				261.512,238.38 			"/>
		</g>
		<g>
			<path style="fill:#407BFF;" d="M216.191,219.748c0,0,1.499-3.805,8.694-5.061s15.074,2.056,16.959,4.454l-6.176,0.607
				l-3.128,6.816l-7.113-6.077L216.191,219.748z"/>
			<path style="opacity:0.2;fill:#FFFFFF;enable-background:new    ;" d="M216.191,219.748c0,0,1.499-3.805,8.694-5.061
				s15.074,2.056,16.959,4.454l-6.176,0.607l-3.128,6.816l-7.113-6.077L216.191,219.748z"/>
		</g>
		<g>
			<path style="fill:#B97964;" d="M220.07,217.647c1.384,1.257,3.605,1.796,5.723,1.997l6.457,5.949l1.884-6.567
				c0,0,2.451-0.868,1.385-2.453c-2.988-0.494-4.434-1.888-5.032-3.672c-0.346-1.039-0.398-2.208-0.303-3.412
				c0.043-0.632,0.139-1.273,0.251-1.905l-10.046-7.44C221.707,205.054,223.318,214.087,220.07,217.647z"/>
			<path style="opacity:0.2;enable-background:new    ;" d="M222.712,204.872c0.398,6.028,5.352,7.691,7.777,8.029
				c-0.346-1.039-0.398-2.208-0.303-3.412L222.712,204.872z"/>
		</g>
		<g>
			<path style="fill:#263238;" d="M240.319,187.479c0,0,1.155,7.723-3.825,11.331c-4.98,3.609-4.98-13.857-4.98-13.857
				L240.319,187.479z"/>
			<path style="fill:#B97964;" d="M222.036,206.267c2.416,3.473,6.357,4.382,9.778,3.3c2.2-0.693,4.183-2.217,5.413-4.408
				c0.165-0.286,0.312-0.589,0.451-0.901c2.451-5.733,3.23-15.763-2.832-19.521c-4.304-2.711-10.003-1.42-12.714,2.893
				c-0.779,1.221-1.247,2.616-1.386,4.062C220.001,198.394,219.247,202.3,222.036,206.267z"/>
			<path style="fill:#263238;" d="M230.518,195.272c-0.129,0.53,0.115,1.026,0.475,1.087c0.36,0.061,0.714-0.334,0.81-0.872
				c0.096-0.538-0.124-1.028-0.475-1.087C230.976,194.341,230.615,194.725,230.518,195.272z"/>
			<path style="fill:#263238;" d="M236.637,196.317c-0.129,0.53,0.124,1.029,0.475,1.087c0.351,0.059,0.714-0.334,0.81-0.872
				c0.096-0.538-0.124-1.029-0.475-1.087C237.096,195.386,236.726,195.804,236.637,196.317z"/>
			<path style="fill:#A24E3F;" d="M234.647,196.251c0.362,1.765,0.966,3.472,1.795,5.072c-0.845,0.41-1.827,0.425-2.684,0.041
				L234.647,196.251z"/>
			<path style="fill:#263238;" d="M228.958,192.967c0.115,0.037,0.24,0.01,0.329-0.071c0.584-0.575,1.406-0.841,2.216-0.717
				c0.172,0.042,0.345-0.063,0.388-0.235c0.042-0.172-0.063-0.345-0.235-0.388c0,0-0.001,0-0.001,0
				c-1.021-0.183-2.066,0.141-2.805,0.868c-0.133,0.117-0.145,0.32-0.028,0.452c0.002,0.002,0.003,0.004,0.005,0.006
				C228.866,192.916,228.91,192.945,228.958,192.967z"/>
			<path style="fill:#263238;" d="M228.6,201.501L228.6,201.501c1.61,0.094,3.073,0.967,3.92,2.34
				c0.043,0.083,0.012,0.186-0.07,0.231c-0.078,0.046-0.179,0.02-0.225-0.059c-0.002-0.004-0.004-0.008-0.006-0.011
				c-0.809-1.253-2.162-2.052-3.65-2.156c-0.091-0.003-0.162-0.079-0.159-0.17c0-0.006,0.001-0.012,0.002-0.018
				c0.003-0.091,0.079-0.162,0.17-0.159C228.588,201.499,228.594,201.5,228.6,201.501z"/>
			<path style="fill:#263238;" d="M239.626,194.656c0.055,0.034,0.12,0.05,0.185,0.045c0.171-0.047,0.271-0.223,0.224-0.394
				c-0.001-0.002-0.001-0.005-0.002-0.007c-0.268-1.005-1.007-1.817-1.984-2.177c-0.169-0.051-0.348,0.044-0.4,0.214
				c0,0,0,0.001,0,0.001c-0.047,0.169,0.048,0.345,0.215,0.4l0,0c0.762,0.306,1.335,0.955,1.544,1.749
				C239.453,194.573,239.533,194.634,239.626,194.656z"/>
			<path style="fill:#263238;" d="M230.658,180.92c-0.798-0.108-1.597-0.202-2.401-0.244c-2.312-0.119-4.72,0.169-6.712,1.348
				c-4.635,2.743-3.835,9.775-3.239,14.331c0.794,6.063,3.176,8.805,3.176,8.805c-1.443-2.887-1.01-8.516-0.072-8.661
				c0.938-0.144,0.866,0.938,0.866,0.938c2.092-1.302,3.969-4.98,3.32-7.578c-0.497-1.99,1.732-3.464,3.609-2.526
				c0.188,0.094,0.376,0.186,0.565,0.277c0.276,0.132,0.577,0.272,0.888,0.413V180.92z"/>
			<path style="fill:#B97964;" d="M216.911,196.645c0.48,1.63,1.588,3.003,3.079,3.817c1.982,1.065,3.464-0.592,3.329-2.721
				c-0.137-1.891-1.314-4.783-3.509-4.949C217.615,192.627,216.346,194.637,216.911,196.645z"/>
			<path style="fill:#263238;" d="M233.342,186.68c-0.441,0.77,0.656,3.255-1.828,2.656c-2.484-0.6-2.664,0.463-4.425,2.17
				c-1.761,1.707-5.339-0.885-5.339-0.885l-3.904,0.514c0,0-2.852-2.563-1.069-3.94c1.783-1.377,2.178-3.341,3.275-5.653
				c1.097-2.313,5.944-5.311,11.101-1.799c0,0,2.735-0.942,3.946-0.257c1.211,0.685,2.173,2.484,2.173,2.484
				s1.371-1.542,2.774-0.086c1.403,1.456,0.29,6.681,1.489,7.966c1.199,1.285-1.489,2.934-1.489,2.934s-2.104-0.505-2.104-2.049
				c0-2.741-0.404-3.727-1.745-4.226c-0.844-0.314-1.401,0.428-1.401,0.428S234.039,185.46,233.342,186.68z"/>
		</g>
	</g>
</g>
</svg>
